<mxfile host="app.diagrams.net" modified="2021-08-12T07:24:44.784Z" agent="5.0 (Macintosh; Intel Mac OS X 10_15_2) AppleWebKit/537.36 (KHTML, like Gecko) Chrome/92.0.4515.131 Safari/537.36" etag="mqvvCKJIh6LZNucDRsjQ" version="14.9.6" type="github">
  <diagram id="kN7i4PtoxrEE-FA9i4Zv" name="Page-1">
    <mxGraphModel dx="1298" dy="739" grid="1" gridSize="10" guides="1" tooltips="1" connect="1" arrows="1" fold="1" page="1" pageScale="1" pageWidth="827" pageHeight="1169" background="#F1FAEE" math="0" shadow="0">
      <root>
        <mxCell id="0" />
        <mxCell id="1" parent="0" />
        <mxCell id="C451p-7QUIh06t-aV0Xr-16" value="" style="rounded=1;whiteSpace=wrap;html=1;shadow=1;sketch=0;fontColor=#1D3557;strokeColor=#457B9D;fillColor=#ffffff;dashed=1;" vertex="1" parent="1">
          <mxGeometry x="130" y="180" width="540" height="500" as="geometry" />
        </mxCell>
        <mxCell id="C451p-7QUIh06t-aV0Xr-24" value="" style="rounded=1;whiteSpace=wrap;html=1;shadow=1;dashed=1;sketch=0;fontColor=#1D3557;strokeColor=#457B9D;fillColor=#ffffff;" vertex="1" parent="1">
          <mxGeometry x="165" y="230" width="170" height="400" as="geometry" />
        </mxCell>
        <mxCell id="C451p-7QUIh06t-aV0Xr-23" value="" style="rounded=1;whiteSpace=wrap;html=1;shadow=1;dashed=1;sketch=0;fontColor=#1D3557;strokeColor=#457B9D;fillColor=#ffffff;" vertex="1" parent="1">
          <mxGeometry x="345" y="230" width="170" height="400" as="geometry" />
        </mxCell>
        <mxCell id="C451p-7QUIh06t-aV0Xr-3" value="实时性" style="rounded=0;whiteSpace=wrap;html=1;sketch=0;strokeColor=#005700;fillColor=#008a00;fontColor=#ffffff;shadow=1;fontStyle=1;fontSize=19;" vertex="1" parent="1">
          <mxGeometry x="190" y="250" width="120" height="60" as="geometry" />
        </mxCell>
        <mxCell id="C451p-7QUIh06t-aV0Xr-4" value="高可用" style="rounded=0;whiteSpace=wrap;html=1;sketch=0;strokeColor=#005700;fillColor=#008a00;fontColor=#ffffff;shadow=1;fontStyle=1;fontSize=19;" vertex="1" parent="1">
          <mxGeometry x="370" y="250" width="120" height="60" as="geometry" />
        </mxCell>
        <mxCell id="C451p-7QUIh06t-aV0Xr-5" value="&lt;font style=&quot;font-size: 18px&quot;&gt;全链路&lt;br&gt;监控大盘&lt;/font&gt;" style="rounded=0;whiteSpace=wrap;html=1;sketch=0;strokeColor=#BD7000;fillColor=#f0a30a;fontColor=#000000;shadow=1;" vertex="1" parent="1">
          <mxGeometry x="530" y="240" width="120" height="380" as="geometry" />
        </mxCell>
        <mxCell id="C451p-7QUIh06t-aV0Xr-6" value="压测能力" style="rounded=0;whiteSpace=wrap;html=1;sketch=0;strokeColor=#0e8088;fillColor=#b0e3e6;shadow=1;fontStyle=1" vertex="1" parent="1">
          <mxGeometry x="370" y="475" width="120" height="60" as="geometry" />
        </mxCell>
        <mxCell id="C451p-7QUIh06t-aV0Xr-7" value="容灾建设" style="rounded=0;whiteSpace=wrap;html=1;sketch=0;strokeColor=#0e8088;fillColor=#b0e3e6;shadow=1;fontStyle=1" vertex="1" parent="1">
          <mxGeometry x="370" y="330" width="120" height="60" as="geometry" />
        </mxCell>
        <mxCell id="C451p-7QUIh06t-aV0Xr-8" value="灰度能力" style="rounded=0;whiteSpace=wrap;html=1;sketch=0;strokeColor=#0e8088;fillColor=#b0e3e6;shadow=1;fontStyle=1" vertex="1" parent="1">
          <mxGeometry x="370" y="401" width="120" height="60" as="geometry" />
        </mxCell>
        <mxCell id="C451p-7QUIh06t-aV0Xr-11" value="增量来源优化" style="rounded=0;whiteSpace=wrap;html=1;sketch=0;strokeColor=#0e8088;fillColor=#b0e3e6;shadow=1;fontStyle=1" vertex="1" parent="1">
          <mxGeometry x="190" y="470" width="120" height="60" as="geometry" />
        </mxCell>
        <mxCell id="C451p-7QUIh06t-aV0Xr-12" value="索引优化&amp;nbsp;" style="rounded=0;whiteSpace=wrap;html=1;sketch=0;strokeColor=#0e8088;fillColor=#b0e3e6;shadow=1;fontStyle=1" vertex="1" parent="1">
          <mxGeometry x="190" y="330" width="120" height="60" as="geometry" />
        </mxCell>
        <mxCell id="C451p-7QUIh06t-aV0Xr-13" value="BuildService 优化" style="rounded=0;whiteSpace=wrap;html=1;sketch=0;strokeColor=#0e8088;fillColor=#b0e3e6;shadow=1;fontStyle=1" vertex="1" parent="1">
          <mxGeometry x="190" y="400" width="120" height="60" as="geometry" />
        </mxCell>
        <mxCell id="C451p-7QUIh06t-aV0Xr-14" value="预发搭建" style="rounded=0;whiteSpace=wrap;html=1;sketch=0;strokeColor=#0e8088;fillColor=#b0e3e6;shadow=1;fontStyle=1" vertex="1" parent="1">
          <mxGeometry x="370" y="550" width="120" height="60" as="geometry" />
        </mxCell>
        <mxCell id="C451p-7QUIh06t-aV0Xr-18" value="" style="endArrow=none;dashed=1;html=1;fontColor=#1D3557;fillColor=#A8DADC;strokeColor=#330033;" edge="1" parent="1" target="C451p-7QUIh06t-aV0Xr-16">
          <mxGeometry width="50" height="50" relative="1" as="geometry">
            <mxPoint x="130" y="320" as="sourcePoint" />
            <mxPoint x="210" y="320" as="targetPoint" />
          </mxGeometry>
        </mxCell>
        <mxCell id="C451p-7QUIh06t-aV0Xr-22" value="" style="endArrow=none;dashed=1;html=1;fontColor=#1D3557;strokeColor=#457B9D;fillColor=#A8DADC;" edge="1" parent="1">
          <mxGeometry width="50" height="50" relative="1" as="geometry">
            <mxPoint x="40" y="40" as="sourcePoint" />
            <mxPoint x="120" y="40" as="targetPoint" />
          </mxGeometry>
        </mxCell>
      </root>
    </mxGraphModel>
  </diagram>
</mxfile>
